<?xml version="1.0" encoding="iso-8859-1"?>
<!-- Generator: Adobe Illustrator 19.0.0, SVG Export Plug-In . SVG Version: 6.00 Build 0)  -->
<svg version="1.1" id="Layer_1" xmlns="http://www.w3.org/2000/svg" xmlns:xlink="http://www.w3.org/1999/xlink" x="0px" y="0px"
	 viewBox="0 0 512 512" style="enable-background:new 0 0 512 512;" xml:space="preserve">
<g>
	<g>
		<path d="M489.657,196.469h-26.229v-40.023c0-18.48-15.035-33.515-33.515-33.515H33.515C15.035,122.931,0,137.966,0,156.445
			v199.109c0,18.48,15.035,33.515,33.515,33.515h396.399c18.48,0,33.515-15.035,33.515-33.515v-40.023h26.229
			c12.32,0,22.343-10.023,22.343-22.343v-74.376C512,206.491,501.976,196.469,489.657,196.469z M352.741,366.726H33.515
			c-6.16-0.001-11.172-5.013-11.172-11.173V156.445c0-6.16,5.012-11.172,11.172-11.172h319.226V366.726z M429.914,366.725h-54.83
			V145.274h54.829c6.16,0,11.172,5.012,11.172,11.172v51.195v96.719v51.195h0.001C441.085,361.713,436.074,366.725,429.914,366.725z
			 M489.657,293.187h-26.229v-74.376h26.229l0.015,74.374C489.67,293.186,489.666,293.187,489.657,293.187z"/>
	</g>
</g>
<g>
</g>
<g>
</g>
<g>
</g>
<g>
</g>
<g>
</g>
<g>
</g>
<g>
</g>
<g>
</g>
<g>
</g>
<g>
</g>
<g>
</g>
<g>
</g>
<g>
</g>
<g>
</g>
<g>
</g>
</svg>
