<?xml version="1.0" encoding="iso-8859-1"?>
<!-- Generator: Adobe Illustrator 19.0.0, SVG Export Plug-In . SVG Version: 6.00 Build 0)  -->
<svg version="1.1" id="Layer_1" xmlns="http://www.w3.org/2000/svg" xmlns:xlink="http://www.w3.org/1999/xlink" x="0px" y="0px"
	 viewBox="0 0 512 512" style="enable-background:new 0 0 512 512;" xml:space="preserve">
<g>
	<g>
		<path d="M489.335,52.421H22.665C10.168,52.421,0,62.588,0,75.086v50.758c0,12.498,10.168,22.665,22.665,22.665h4.919v288.406
			c0,12.498,10.168,22.665,22.665,22.665h411.5c12.498,0,22.665-10.168,22.665-22.665V148.509h4.919
			c12.498,0,22.665-10.168,22.665-22.665V75.086C512,62.588,501.832,52.421,489.335,52.421z M461.75,436.915H50.25V148.509h411.501
			l0.014,288.404C461.765,436.914,461.76,436.915,461.75,436.915z M489.335,125.843h-16.252H38.917H22.665V75.086h466.67
			l0.015,50.756C489.35,125.843,489.345,125.843,489.335,125.843z"/>
	</g>
</g>
<g>
	<g>
		<path d="M293.775,297.637V272.96c0-20.83-16.946-37.776-37.775-37.776s-37.776,16.946-37.776,37.776v24.677
			c-14.406,3.484-25.141,16.479-25.141,31.94v38.95c0,18.121,14.743,32.865,32.865,32.865h60.105
			c18.122,0,32.865-14.744,32.865-32.865v-38.95C318.917,314.115,308.182,301.121,293.775,297.637z M238.623,272.96
			c0-9.582,7.795-17.377,17.377-17.377c9.582,0,17.376,7.796,17.376,17.377v23.752h-34.754V272.96z M298.519,368.526
			c0,6.874-5.593,12.466-12.466,12.466h-60.105c-6.873,0-12.466-5.591-12.466-12.466v-38.95c0-6.873,5.593-12.466,12.466-12.466
			h60.105c6.873,0,12.466,5.593,12.466,12.466V368.526z"/>
	</g>
</g>
<g>
	<g>
		<path d="M190.606,182.688H92.018c-5.633,0-10.199,4.566-10.199,10.199s4.566,10.199,10.199,10.199h98.589
			c5.632,0,10.198-4.567,10.198-10.199C200.806,187.254,196.24,182.688,190.606,182.688z"/>
	</g>
</g>
<g>
	<g>
		<path d="M141.312,227.308H92.018c-5.633,0-10.199,4.566-10.199,10.199s4.566,10.199,10.199,10.199h49.293
			c5.633,0,10.199-4.566,10.199-10.199S146.945,227.308,141.312,227.308z"/>
	</g>
</g>
<g>
</g>
<g>
</g>
<g>
</g>
<g>
</g>
<g>
</g>
<g>
</g>
<g>
</g>
<g>
</g>
<g>
</g>
<g>
</g>
<g>
</g>
<g>
</g>
<g>
</g>
<g>
</g>
<g>
</g>
</svg>
