<?xml version="1.0" encoding="iso-8859-1"?>
<!-- Generator: Adobe Illustrator 19.0.0, SVG Export Plug-In . SVG Version: 6.00 Build 0)  -->
<svg version="1.1" id="Layer_1" xmlns="http://www.w3.org/2000/svg" xmlns:xlink="http://www.w3.org/1999/xlink" x="0px" y="0px"
	 viewBox="0 0 512 512" style="enable-background:new 0 0 512 512;" xml:space="preserve">
<g>
	<g>
		<g>
			<path d="M108.064,299.735c-7.664,0-13.873,6.219-13.873,13.884c0,7.664,6.209,13.884,13.873,13.884
				c7.675,0,13.884-6.219,13.884-13.884C121.948,305.954,115.739,299.735,108.064,299.735z"/>
			<path d="M477.28,193.324l-97.552-39.096c-16.24-6.513-33.348-9.811-50.854-9.811h-59.796c-21.422,0-42.845,5.13-61.943,14.847
				l-88.391,44.949l-63.408,9.245c-15.37,2.241-29.422,9.947-39.588,21.705C5.591,246.912,0,261.937,0,277.464v37.421
				c0,5.78,4.691,10.47,10.47,10.47h44.918c2.251,10.188,7.413,19.506,15.035,26.94c10.135,9.853,23.506,15.287,37.651,15.287
				c14.135,0,27.506-5.434,37.641-15.287c7.633-7.444,12.805-16.784,15.046-26.94h187.66c2.251,10.188,7.413,19.506,15.046,26.93
				c10.125,9.863,23.495,15.297,37.63,15.297c14.145,0,27.516-5.434,37.641-15.287c7.633-7.434,12.795-16.753,15.046-26.94h47.745
				c5.78,0,10.47-4.691,10.47-10.47V244.65C512,221.929,498.368,201.785,477.28,193.324z M371.938,173.661l75.303,30.186h-56.823
				l-25.014-32.573C367.593,172.007,369.771,172.803,371.938,173.661z M278.899,165.358h49.975c1.906,0,3.801,0.042,5.685,0.136
				l29.453,38.353h-85.113V165.358z M216.621,177.933c12.868-6.544,26.972-10.627,41.337-12.02v37.934h-92.296L216.621,177.933z
				 M56.739,234.462c-4.303,14.564-17.15,25.495-32.709,26.982C29.484,247.76,41.703,237.237,56.739,234.462z M108.064,346.642
				c-18.239,0-33.023-14.784-33.023-33.023c0-18.239,14.784-33.023,33.023-33.023s33.023,14.784,33.023,33.023
				C141.088,331.858,126.304,346.642,108.064,346.642z M401.109,346.642c-18.239,0-33.034-14.784-33.034-33.023
				c0-18.239,14.795-33.023,33.034-33.023c18.239,0,33.023,14.784,33.023,33.023C434.132,331.858,419.348,346.642,401.109,346.642z
				 M491.059,304.415h-36.793c-4.387-25.38-26.542-44.761-53.168-44.761c-26.616,0-48.771,19.381-53.158,44.761H161.243
				c-4.387-25.38-26.553-44.761-53.168-44.761c-26.626,0-48.781,19.381-53.168,44.761H20.941v-21.862
				c29.663-0.272,54.142-22.595,57.796-51.347l44.028-6.418h262.492c0,0,0,0,0.01,0c0,0,0,0,0.01,0h66.256v13.632
				c0,19.161,15.59,34.751,34.741,34.751h4.785V304.415z M491.059,252.231h-4.785c-7.602,0-13.8-6.198-13.8-13.81v-13.632h12.282
				c4.01,5.675,6.303,12.543,6.303,19.862V252.231z"/>
			<path d="M401.109,299.735c-7.675,0-13.884,6.219-13.884,13.884c0,7.664,6.209,13.884,13.884,13.884
				c7.664,0,13.873-6.219,13.873-13.884C414.982,305.954,408.773,299.735,401.109,299.735z"/>
		</g>
	</g>
</g>
<g>
	<g>
		<path d="M290.199,254.133h-69.446c-5.783,0-10.47,4.688-10.47,10.47s4.688,10.47,10.47,10.47h69.446
			c5.782,0,10.47-4.688,10.47-10.47S295.981,254.133,290.199,254.133z"/>
	</g>
</g>
<g id="SVGCleanerId_0">
	<g>
		<path d="M108.064,299.735c-7.664,0-13.873,6.219-13.873,13.884c0,7.664,6.209,13.884,13.873,13.884
			c7.675,0,13.884-6.219,13.884-13.884C121.948,305.954,115.739,299.735,108.064,299.735z"/>
	</g>
</g>
<g id="SVGCleanerId_1">
	<g>
		<path d="M401.109,299.735c-7.675,0-13.884,6.219-13.884,13.884c0,7.664,6.209,13.884,13.884,13.884
			c7.664,0,13.873-6.219,13.873-13.884C414.982,305.954,408.773,299.735,401.109,299.735z"/>
	</g>
</g>
<g>
	<g>
		<path d="M108.064,299.735c-7.664,0-13.873,6.219-13.873,13.884c0,7.664,6.209,13.884,13.873,13.884
			c7.675,0,13.884-6.219,13.884-13.884C121.948,305.954,115.739,299.735,108.064,299.735z"/>
	</g>
</g>
<g>
	<g>
		<path d="M401.109,299.735c-7.675,0-13.884,6.219-13.884,13.884c0,7.664,6.209,13.884,13.884,13.884
			c7.664,0,13.873-6.219,13.873-13.884C414.982,305.954,408.773,299.735,401.109,299.735z"/>
	</g>
</g>
<g>
</g>
<g>
</g>
<g>
</g>
<g>
</g>
<g>
</g>
<g>
</g>
<g>
</g>
<g>
</g>
<g>
</g>
<g>
</g>
<g>
</g>
<g>
</g>
<g>
</g>
<g>
</g>
<g>
</g>
</svg>
