<?xml version="1.0" encoding="iso-8859-1"?>
<!-- Generator: Adobe Illustrator 19.0.0, SVG Export Plug-In . SVG Version: 6.00 Build 0)  -->
<svg version="1.1" id="Layer_1" xmlns="http://www.w3.org/2000/svg" xmlns:xlink="http://www.w3.org/1999/xlink" x="0px" y="0px"
	 viewBox="0 0 512.001 512.001" style="enable-background:new 0 0 512.001 512.001;" xml:space="preserve">
<g>
	<g>
		<path d="M405.968,219.011c-1.07-78.063-64.904-141.239-143.214-141.239c-34.836,0-68.396,12.673-94.498,35.682
			c-23.296,20.534-39.232,47.976-45.543,78.105c-0.461-0.005-0.918-0.009-1.374-0.009C54.433,191.551,0,245.983,0,312.89
			s54.433,121.339,121.339,121.339h283.046c59.34,0,107.615-48.275,107.616-107.614
			C512.001,267.805,464.581,219.861,405.968,219.011z M404.385,412.391H121.339c-54.865,0-99.501-44.636-99.501-99.501
			c0-54.865,44.636-99.501,99.501-99.501c2.925,0,6.015,0.156,9.446,0.48c5.822,0.56,11.053-3.596,11.844-9.396
			c3.931-28.82,18.161-55.327,40.067-74.638c22.111-19.492,50.542-30.226,80.056-30.226c66.934,0,121.389,54.454,121.389,121.389
			c0,2.41-0.179,4.894-0.368,7.524l-0.08,1.119c-0.227,3.212,0.976,6.361,3.287,8.604c2.31,2.243,5.495,3.348,8.698,3.03
			c2.902-0.292,5.831-0.44,8.706-0.44c47.297,0,85.777,38.48,85.777,85.778S451.682,412.391,404.385,412.391z"/>
	</g>
</g>
<g>
	<g>
		<path d="M262.754,129.09c-45.658,0-84.742,34.12-90.913,79.367c-0.815,5.976,3.369,11.48,9.343,12.295
			c0.5,0.069,0.998,0.102,1.489,0.102c5.374,0,10.059-3.97,10.805-9.445c4.703-34.479,34.485-60.481,69.275-60.481
			c6.031,0,10.919-4.89,10.919-10.919C273.673,133.979,268.785,129.09,262.754,129.09z"/>
	</g>
</g>
<g>
</g>
<g>
</g>
<g>
</g>
<g>
</g>
<g>
</g>
<g>
</g>
<g>
</g>
<g>
</g>
<g>
</g>
<g>
</g>
<g>
</g>
<g>
</g>
<g>
</g>
<g>
</g>
<g>
</g>
</svg>
