<?xml version="1.0" encoding="iso-8859-1"?>
<!-- Generator: Adobe Illustrator 19.0.0, SVG Export Plug-In . SVG Version: 6.00 Build 0)  -->
<svg version="1.1" id="Layer_1" xmlns="http://www.w3.org/2000/svg" xmlns:xlink="http://www.w3.org/1999/xlink" x="0px" y="0px"
	 viewBox="0 0 512 512" style="enable-background:new 0 0 512 512;" xml:space="preserve">
<g>
	<g>
		<path d="M255.999,132.895c-88.362,0-160.25,71.888-160.25,160.25s71.888,160.25,160.25,160.25s160.25-71.888,160.25-160.25
			C416.249,204.783,344.361,132.895,255.999,132.895z M266.379,432.251v-13.375c0-5.733-4.647-10.38-10.38-10.38
			c-5.733,0-10.38,4.647-10.38,10.38v13.375c-68.659-5.075-123.651-60.066-128.726-128.725h13.375c5.733,0,10.38-4.648,10.38-10.38
			c0-5.733-4.647-10.38-10.38-10.38h-13.375c5.075-68.66,60.066-123.651,128.726-128.726v13.375c0,5.732,4.647,10.38,10.38,10.38
			c5.733,0,10.38-4.648,10.38-10.38v-13.375c68.659,5.075,123.651,60.066,128.725,128.726h-13.374c-5.733,0-10.38,4.647-10.38,10.38
			c0,5.732,4.647,10.38,10.38,10.38h13.375C390.029,372.184,335.038,427.176,266.379,432.251z"/>
	</g>
</g>
<g>
	<g>
		<path d="M266.379,74.544V61.059h16.675c5.733,0,10.38-4.647,10.38-10.38v-40.3c0-5.733-4.647-10.38-10.38-10.38h-54.115
			c-5.733,0-10.38,4.647-10.38,10.38v40.3c0,5.733,4.647,10.38,10.38,10.38h16.682v13.485
			C129.745,79.982,37.145,175.949,37.145,293.145C37.145,413.822,135.322,512,256,512s218.855-98.178,218.855-218.855
			C474.855,175.949,382.254,79.982,266.379,74.544z M239.318,40.3V20.759h33.356V40.3H239.318z M255.999,490.148
			c-108.628,0-197.003-88.375-197.003-197.003S147.371,96.143,255.999,96.143s197.003,88.375,197.003,197.003
			C453.003,401.774,364.628,490.148,255.999,490.148z"/>
	</g>
</g>
<g>
	<g>
		<path d="M332.41,216.738c-3.06-3.06-7.696-3.901-11.636-2.111l-94.97,43.168c-0.079,0.036-0.153,0.08-0.232,0.118
			c-0.158,0.076-0.316,0.155-0.471,0.24c-0.14,0.076-0.274,0.159-0.41,0.243c-0.139,0.085-0.279,0.168-0.415,0.261
			c-0.161,0.109-0.315,0.227-0.47,0.345c-0.103,0.079-0.209,0.153-0.309,0.236c-0.512,0.423-0.982,0.893-1.405,1.405
			c-0.084,0.103-0.159,0.21-0.239,0.314c-0.117,0.153-0.234,0.305-0.341,0.464c-0.094,0.138-0.179,0.28-0.266,0.422
			c-0.081,0.132-0.162,0.264-0.237,0.401c-0.087,0.158-0.166,0.318-0.245,0.48c-0.037,0.076-0.08,0.149-0.115,0.226l-43.168,94.97
			c-1.791,3.939-0.949,8.576,2.11,11.634c1.989,1.99,4.645,3.041,7.342,3.041c1.451,0,2.914-0.305,4.293-0.931l94.97-43.168
			c0.079-0.036,0.152-0.08,0.229-0.117c0.159-0.078,0.318-0.156,0.474-0.241c0.139-0.076,0.272-0.158,0.406-0.24
			c0.14-0.085,0.281-0.169,0.417-0.263c0.159-0.108,0.313-0.225,0.465-0.342c0.105-0.08,0.212-0.155,0.314-0.239
			c0.511-0.422,0.981-0.892,1.403-1.403c0.087-0.105,0.165-0.216,0.247-0.323c0.114-0.15,0.228-0.298,0.334-0.454
			c0.095-0.14,0.181-0.283,0.269-0.426c0.08-0.131,0.161-0.261,0.235-0.397c0.087-0.158,0.167-0.32,0.246-0.482
			c0.037-0.075,0.08-0.148,0.115-0.225l43.168-94.97C336.311,224.433,335.47,219.797,332.41,216.738z M207.832,341.312
			l25.517-56.137l30.62,30.62L207.832,341.312z M278.649,301.117l-30.62-30.62l56.137-25.517L278.649,301.117z"/>
	</g>
</g>
<g>
</g>
<g>
</g>
<g>
</g>
<g>
</g>
<g>
</g>
<g>
</g>
<g>
</g>
<g>
</g>
<g>
</g>
<g>
</g>
<g>
</g>
<g>
</g>
<g>
</g>
<g>
</g>
<g>
</g>
</svg>
