<?xml version="1.0" encoding="iso-8859-1"?>
<!-- Generator: Adobe Illustrator 19.0.0, SVG Export Plug-In . SVG Version: 6.00 Build 0)  -->
<svg version="1.1" id="Layer_1" xmlns="http://www.w3.org/2000/svg" xmlns:xlink="http://www.w3.org/1999/xlink" x="0px" y="0px"
	 viewBox="0 0 512.001 512.001" style="enable-background:new 0 0 512.001 512.001;" xml:space="preserve">
<g>
	<g>
		<path d="M141.247,31.99C125.777,11.362,104.892,0.003,82.44,0.003c-22.451,0-43.335,11.36-58.806,31.986
			C8.921,51.606,0.819,77.505,0.819,104.916c0,27.412,8.102,53.31,22.816,72.927c8.605,11.473,18.888,20.068,30.18,25.446
			L36.546,462.948c-0.842,12.653,3.645,25.221,12.309,34.48c8.665,9.261,20.909,14.573,33.591,14.573
			c12.679,0,24.917-5.309,33.579-14.565c8.664-9.26,13.151-21.83,12.307-34.486l-17.269-259.656
			c11.294-5.379,21.578-13.974,30.184-25.449c14.712-19.617,22.816-45.517,22.816-72.927S155.961,51.607,141.247,31.99z
			 M98.874,481.389c-4.3,4.596-10.135,7.127-16.429,7.127c-6.299,0-12.138-2.533-16.442-7.132c-4.302-4.6-6.442-10.592-6.025-16.875
			l16.954-254.934c1.826,0.153,3.659,0.258,5.508,0.258c1.848,0,3.68-0.106,5.505-0.258l16.954,254.934
			C105.316,470.795,103.178,476.79,98.874,481.389z M82.44,186.346c-4.207,0-8.308-0.645-12.264-1.839
			c-0.328-0.121-0.66-0.232-1-0.324c-25.683-8.431-44.872-40.759-44.872-79.266c0-44.899,26.08-81.429,58.136-81.429
			c32.057,0,58.138,36.529,58.138,81.429C140.578,149.817,114.498,186.346,82.44,186.346z"/>
	</g>
</g>
<g>
	<g>
		<path d="M511.18,305.92V13.222l-0.099,0.043c0.339-2.587-0.174-5.303-1.653-7.696c-3.41-5.516-10.645-7.223-16.164-3.813
			c-47.905,29.617-76.509,80.916-76.518,137.229c0,0.008-0.001,0.015-0.001,0.022v153.781c0,13.493,10.783,24.483,24.169,24.891
			V476.7c0,19.373,15.761,35.134,35.134,35.134c19.373,0,35.135-15.761,35.135-35.134V305.979
			C511.182,305.959,511.18,305.94,511.18,305.92z M441.675,294.235c-0.8-0.001-1.444-0.647-1.444-1.445V139.028
			c0-0.005,0.001-0.009,0.001-0.014c0-40.621,17.413-78.189,47.462-104.139v259.36H441.675z M487.697,476.702
			c0,6.423-5.225,11.649-11.65,11.649c-6.423,0-11.649-5.225-11.649-11.649V317.721h23.299V476.702z"/>
	</g>
</g>
<g>
	<g>
		<path d="M332.799,0.003c-6.485,0-11.743,5.257-11.743,11.743v133.4h-29.92v-133.4c0-6.485-5.258-11.743-11.743-11.743
			c-6.485,0-11.743,5.257-11.743,11.743v133.4h-29.92v-133.4c0-6.485-5.258-11.743-11.743-11.743s-11.743,5.257-11.743,11.743
			v169.984c0,19.14,15.573,34.714,34.714,34.714h2.089l-16.475,247.65c-0.827,12.352,3.551,24.624,12.013,33.67
			c8.463,9.049,20.42,14.238,32.807,14.238c12.385,0,24.342-5.189,32.806-14.237c8.461-9.045,12.839-21.318,12.013-33.666
			l-16.476-247.655h2.093c19.142,0,34.715-15.573,34.715-34.714V11.745C344.541,5.26,339.283,0.003,332.799,0.003z M295.045,481.72
			c-4.098,4.382-9.658,6.795-15.654,6.795s-11.556-2.413-15.654-6.795c-4.096-4.379-6.132-10.082-5.732-16.063l16.578-249.215h9.615
			l16.579,249.218C301.177,471.638,299.142,477.341,295.045,481.72z M321.055,181.729c0.001,6.192-5.036,11.228-11.228,11.228
			h-46.622c-0.015,0.001-0.031-0.001-0.046,0h-14.2c-6.192,0-11.228-5.036-11.228-11.228v-13.1h83.324V181.729z"/>
	</g>
</g>
<g>
</g>
<g>
</g>
<g>
</g>
<g>
</g>
<g>
</g>
<g>
</g>
<g>
</g>
<g>
</g>
<g>
</g>
<g>
</g>
<g>
</g>
<g>
</g>
<g>
</g>
<g>
</g>
<g>
</g>
</svg>
