<?xml version="1.0" encoding="iso-8859-1"?>
<!-- Generator: Adobe Illustrator 19.0.0, SVG Export Plug-In . SVG Version: 6.00 Build 0)  -->
<svg version="1.1" id="Layer_1" xmlns="http://www.w3.org/2000/svg" xmlns:xlink="http://www.w3.org/1999/xlink" x="0px" y="0px"
	 viewBox="0 0 512 512" style="enable-background:new 0 0 512 512;" xml:space="preserve">
<g>
	<g>
		<path d="M477.606,128.055C443.431,68.862,388.251,26.52,322.229,8.83C256.207-8.862,187.248,0.217,128.055,34.394
			C68.863,68.57,26.52,123.75,8.83,189.772c-17.69,66.021-8.611,134.979,25.564,194.173
			c34.175,59.194,89.355,101.535,155.377,119.225c22.046,5.908,44.417,8.83,66.646,8.83c44.339-0.001,88.101-11.629,127.529-34.393
			C443.138,443.432,485.48,388.25,503.17,322.23C520.862,256.207,511.781,187.249,477.606,128.055z M477.431,315.333
			c-15.849,59.146-53.78,108.579-106.81,139.197s-114.808,38.748-173.954,22.903c-59.146-15.849-108.579-53.78-139.197-106.81
			c-30.616-53.028-38.75-114.807-22.901-173.954c15.849-59.146,53.78-108.579,106.81-139.197s114.809-38.749,173.954-22.901
			c59.146,15.849,108.579,53.78,139.197,106.81C485.145,194.408,493.28,256.186,477.431,315.333z"/>
	</g>
</g>
<g>
	<g>
		<path d="M425.587,235.058l-122.681-70.829c-7.571-4.372-16.612-4.372-24.182,0c-7.571,4.37-12.09,12.2-12.09,20.941v52.802
			c-1.227-1.087-2.576-2.067-4.041-2.913L139.911,164.23c-7.571-4.372-16.612-4.372-24.182,0c-7.571,4.37-12.09,12.2-12.09,20.941
			v141.661c0,8.742,4.521,16.571,12.09,20.941c3.787,2.186,7.938,3.279,12.092,3.279c4.152,0,8.305-1.093,12.09-3.279
			l122.681-70.829c1.467-0.846,2.815-1.825,4.041-2.913v52.802c0,8.742,4.521,16.571,12.09,20.941
			c3.787,2.186,7.938,3.279,12.092,3.279c4.152,0,8.305-1.093,12.09-3.279l122.681-70.829c7.572-4.37,12.09-12.2,12.09-20.943
			C437.677,247.26,433.159,239.428,425.587,235.058z M130.284,322.56V189.442l115.284,66.559L130.284,322.56z M293.28,322.56
			V189.442l115.284,66.559L293.28,322.56z"/>
	</g>
</g>
<g>
</g>
<g>
</g>
<g>
</g>
<g>
</g>
<g>
</g>
<g>
</g>
<g>
</g>
<g>
</g>
<g>
</g>
<g>
</g>
<g>
</g>
<g>
</g>
<g>
</g>
<g>
</g>
<g>
</g>
</svg>
