<?xml version="1.0" encoding="iso-8859-1"?>
<!-- Generator: Adobe Illustrator 19.0.0, SVG Export Plug-In . SVG Version: 6.00 Build 0)  -->
<svg version="1.1" id="Layer_1" xmlns="http://www.w3.org/2000/svg" xmlns:xlink="http://www.w3.org/1999/xlink" x="0px" y="0px"
	 viewBox="0 0 512 512" style="enable-background:new 0 0 512 512;" xml:space="preserve">
<g>
	<g>
		<path d="M480.159,45.81H31.841C14.284,45.81,0,60.093,0,77.65v37.472c0,17.557,14.284,31.841,31.841,31.841h14.907L211.305,311.52
			v144.056c0,4.293,2.586,8.163,6.552,9.806c1.313,0.543,2.692,0.808,4.059,0.808c2.763,0,5.478-1.078,7.508-3.109l68.559-68.56
			c1.99-1.991,3.109-4.69,3.109-7.505v-75.498l164.554-164.555h14.514c17.557,0,31.841-14.284,31.841-31.841V77.65
			C512,60.093,497.716,45.81,480.159,45.81z M282.968,299.621c-2.096,2.096-3.128,4.85-3.104,7.597v75.404l-47.332,47.332V307.156
			c0.007-2.727-1.027-5.455-3.107-7.536L76.768,146.963h358.857L282.968,299.621z M490.773,115.122
			c0,5.852-4.761,10.614-10.614,10.614H31.841c-5.852,0-10.614-4.761-10.614-10.614V77.65c0-5.852,4.761-10.614,10.614-10.614
			h448.319c5.852,0,10.614,4.761,10.614,10.614V115.122z"/>
	</g>
</g>
<g>
</g>
<g>
</g>
<g>
</g>
<g>
</g>
<g>
</g>
<g>
</g>
<g>
</g>
<g>
</g>
<g>
</g>
<g>
</g>
<g>
</g>
<g>
</g>
<g>
</g>
<g>
</g>
<g>
</g>
</svg>
