<?xml version="1.0" encoding="iso-8859-1"?>
<!-- Generator: Adobe Illustrator 19.0.0, SVG Export Plug-In . SVG Version: 6.00 Build 0)  -->
<svg version="1.1" id="Layer_1" xmlns="http://www.w3.org/2000/svg" xmlns:xlink="http://www.w3.org/1999/xlink" x="0px" y="0px"
	 viewBox="0 0 512 512" style="enable-background:new 0 0 512 512;" xml:space="preserve">
<g>
	<g>
		<path d="M511.638,205.056c-0.008-6.146-2.409-11.922-6.762-16.262c-4.343-4.334-10.113-6.718-16.246-6.718
			c-0.011,0-0.023,0-0.033,0l-465.618,0.64c-6.146,0.009-11.92,2.41-16.261,6.763c-4.34,4.351-6.726,10.134-6.717,16.279
			l0.362,263.123c0.016,12.677,10.335,22.98,23.013,22.98c0.009,0,0.021,0,0.029,0l465.617-0.641
			c6.147-0.008,11.922-2.409,16.263-6.762c4.34-4.351,6.726-10.135,6.717-16.28L511.638,205.056z M463.34,205.121L256.02,349.249
			L48.286,205.691L463.34,205.121z M342.454,372.339l123.65,95.901l-420.548,0.579l124.386-96.481
			c5.021-3.894,5.933-11.121,2.04-16.142c-3.894-5.021-11.121-5.933-16.142-2.039L23.355,456.919l-0.33-240.714l226.473,156.508
			c1.969,1.361,4.255,2.04,6.542,2.04c2.296,0,4.593-0.687,6.567-2.058l226.036-157.139l0.346,241.315L356.558,354.156
			c-5.021-3.892-12.247-2.981-16.142,2.04C336.52,361.217,337.433,368.444,342.454,372.339z"/>
	</g>
</g>
<g>
	<g>
		<path d="M310.509,62.36l-41.851-37.387c-7.215-6.444-18.1-6.444-25.316,0L201.491,62.36c-4.739,4.234-5.149,11.507-0.916,16.245
			c4.234,4.74,11.505,5.147,16.245,0.917l27.674-24.723v88.673c0,6.353,5.151,11.505,11.505,11.505
			c6.353,0,11.505-5.152,11.505-11.505V54.799l27.674,24.722c2.194,1.96,4.932,2.925,7.66,2.925c3.163,0,6.312-1.297,8.585-3.84
			C315.657,73.868,315.248,66.594,310.509,62.36z"/>
	</g>
</g>
<g>
</g>
<g>
</g>
<g>
</g>
<g>
</g>
<g>
</g>
<g>
</g>
<g>
</g>
<g>
</g>
<g>
</g>
<g>
</g>
<g>
</g>
<g>
</g>
<g>
</g>
<g>
</g>
<g>
</g>
</svg>
