<?xml version="1.0" encoding="iso-8859-1"?>
<!-- Generator: Adobe Illustrator 19.0.0, SVG Export Plug-In . SVG Version: 6.00 Build 0)  -->
<svg version="1.1" id="Layer_1" xmlns="http://www.w3.org/2000/svg" xmlns:xlink="http://www.w3.org/1999/xlink" x="0px" y="0px"
	 viewBox="0 0 512 512" style="enable-background:new 0 0 512 512;" xml:space="preserve">
<g>
	<g>
		<path d="M508.796,92.805l-77.46-77.456c-2.052-2.051-4.834-3.204-7.736-3.204H88.4c-2.901,0-5.685,1.153-7.736,3.204L3.205,92.805
			c-3.667,3.668-4.256,9.406-1.409,13.742l162.031,246.74c-6.471,13.409-10.1,28.438-10.1,44.298
			c0,56.392,45.879,102.271,102.27,102.271s102.27-45.88,102.27-102.271c0-15.858-3.628-30.884-10.097-44.292l162.036-246.746
			C513.052,102.211,512.463,96.473,508.796,92.805z M92.931,34.026h326.137l55.579,55.58h-77.453c-0.077,0-0.153-0.002-0.23,0
			H115.037c-0.08-0.002-0.16,0-0.238,0H37.353L92.931,34.026z M376.905,111.485L256.169,295.317c-0.057,0-0.114-0.002-0.172-0.002
			c-0.056,0-0.11,0.002-0.165,0.002L135.094,111.485H376.905z M31.216,111.485h77.701l122.674,186.779
			c-21.899,5.383-41.045,17.834-54.874,34.79L31.216,111.485z M255.997,477.977c-44.327,0-80.389-36.063-80.389-80.391
			s36.063-80.389,80.389-80.389c44.327,0,80.39,36.063,80.39,80.39C336.387,441.914,300.324,477.977,255.997,477.977z
			 M335.28,333.06c-13.827-16.957-32.974-29.409-54.872-34.793l122.674-186.782h77.701L335.28,333.06z"/>
	</g>
</g>
<g>
	<g>
		<path d="M259.713,357.546h-17.381c-6.042,0-10.94,4.899-10.94,10.94c0,6.041,4.898,10.94,10.94,10.94h6.44v59.161
			c0,6.041,4.898,10.94,10.94,10.94c6.042,0,10.94-4.899,10.94-10.94v-70.101C270.653,362.444,265.755,357.546,259.713,357.546z"/>
	</g>
</g>
<g>
</g>
<g>
</g>
<g>
</g>
<g>
</g>
<g>
</g>
<g>
</g>
<g>
</g>
<g>
</g>
<g>
</g>
<g>
</g>
<g>
</g>
<g>
</g>
<g>
</g>
<g>
</g>
<g>
</g>
</svg>
