<?xml version="1.0" encoding="iso-8859-1"?>
<!-- Generator: Adobe Illustrator 19.0.0, SVG Export Plug-In . SVG Version: 6.00 Build 0)  -->
<svg version="1.1" id="Layer_1" xmlns="http://www.w3.org/2000/svg" xmlns:xlink="http://www.w3.org/1999/xlink" x="0px" y="0px"
	 viewBox="0 0 512 512" style="enable-background:new 0 0 512 512;" xml:space="preserve">
<g>
	<g>
		<path d="M511.639,205.054c-0.018-12.676-10.337-22.978-23.011-22.978c-0.01,0-0.021,0-0.031,0l-465.618,0.64
			C10.29,182.734-0.018,193.071,0,205.757l0.361,263.124c0.018,12.677,10.337,22.978,23.01,22.978c0.01,0,0.021,0,0.031,0
			l465.618-0.64c6.146-0.008,11.922-2.409,16.263-6.762c4.34-4.351,6.725-10.134,6.717-16.28L511.639,205.054z M463.34,205.121
			L256.02,349.25L48.286,205.692L463.34,205.121z M342.455,372.34l123.65,95.902l-420.548,0.578l124.385-96.479
			c5.021-3.894,5.934-11.122,2.04-16.143c-3.896-5.022-11.123-5.932-16.143-2.04L23.355,456.919l-0.33-240.714l226.473,156.508
			c1.969,1.361,4.255,2.04,6.541,2.04c2.298,0,4.594-0.687,6.567-2.058l226.037-157.14l0.345,241.315L356.557,354.157
			c-5.02-3.893-12.247-2.982-16.142,2.04C336.521,361.219,337.434,368.445,342.455,372.34z"/>
	</g>
</g>
<g>
	<g>
		<path d="M310.508,62.362l-41.851-37.388c-7.215-6.445-18.099-6.444-25.315,0.001l-41.85,37.387
			c-4.739,4.233-5.148,11.506-0.916,16.245s11.505,5.148,16.245,0.915L244.495,54.8v88.673c0,6.354,5.151,11.505,11.505,11.505
			s11.505-5.151,11.505-11.505V54.801l27.673,24.722c2.194,1.961,4.933,2.925,7.661,2.925c3.163,0,6.312-1.295,8.584-3.84
			C315.657,73.869,315.247,66.596,310.508,62.362z"/>
	</g>
</g>
<g>
</g>
<g>
</g>
<g>
</g>
<g>
</g>
<g>
</g>
<g>
</g>
<g>
</g>
<g>
</g>
<g>
</g>
<g>
</g>
<g>
</g>
<g>
</g>
<g>
</g>
<g>
</g>
<g>
</g>
</svg>
