<?xml version="1.0" encoding="iso-8859-1"?>
<!-- Generator: Adobe Illustrator 19.0.0, SVG Export Plug-In . SVG Version: 6.00 Build 0)  -->
<svg version="1.1" id="Layer_1" xmlns="http://www.w3.org/2000/svg" xmlns:xlink="http://www.w3.org/1999/xlink" x="0px" y="0px"
	 viewBox="0 0 512.001 512.001" style="enable-background:new 0 0 512.001 512.001;" xml:space="preserve">
<g>
	<g>
		<path d="M412.113,170.747c-6.637,0-12.02,5.381-12.02,12.02v75.104c0,79.452-64.639,144.09-144.092,144.09
			S111.91,337.321,111.91,257.87v-75.104c0-6.639-5.383-12.02-12.02-12.02c-6.639,0-12.02,5.381-12.02,12.02v75.104
			c0,88.666,68.993,161.512,156.111,167.696v62.395h-62.174c-6.637,0-12.02,5.381-12.02,12.02c0,6.639,5.382,12.02,12.02,12.02
			h148.386c6.637,0,12.02-5.381,12.02-12.02c0-6.639-5.382-12.02-12.02-12.02H268.02v-62.395
			c87.119-6.184,156.111-79.031,156.111-167.696v-75.104C424.133,176.128,418.75,170.747,412.113,170.747z"/>
	</g>
</g>
<g>
	<g>
		<path d="M264.011,0h-16.02c-54.949,0-99.653,44.704-99.653,99.653V265.88c0,54.949,44.704,99.653,99.653,99.653h16.02
			c54.949,0,99.653-44.704,99.653-99.653V99.653C363.664,44.704,318.96,0,264.011,0z M339.625,130.853h-43.572
			c-6.639,0-12.02,5.381-12.02,12.02c0,6.639,5.381,12.02,12.02,12.02h43.572v33.458h-43.572c-6.639,0-12.02,5.381-12.02,12.02
			s5.381,12.02,12.02,12.02h43.572v33.46h-43.572c-6.639,0-12.02,5.381-12.02,12.02s5.381,12.02,12.02,12.02h43.464
			c-2.091,39.836-35.157,71.603-75.505,71.603h-16.02c-40.348,0-73.414-31.767-75.505-71.603h43.464
			c6.639,0,12.02-5.381,12.02-12.02s-5.381-12.02-12.02-12.02h-43.572v-33.46h43.572c6.639,0,12.02-5.381,12.02-12.02
			s-5.381-12.02-12.02-12.02h-43.572v-33.458h43.572c6.639,0,12.02-5.381,12.02-12.02c0-6.639-5.381-12.02-12.02-12.02h-43.572
			v-31.2c0-29.964,17.52-55.914,42.854-68.143v33.983c0,6.639,5.382,12.02,12.02,12.02s12.02-5.381,12.02-12.02V24.558
			c2.863-0.331,30.595-0.331,33.458,0v40.935c0,6.639,5.381,12.02,12.02,12.02c6.637,0,12.02-5.381,12.02-12.02V31.51
			c25.334,12.229,42.854,38.177,42.854,68.142V130.853z"/>
	</g>
</g>
<g>
</g>
<g>
</g>
<g>
</g>
<g>
</g>
<g>
</g>
<g>
</g>
<g>
</g>
<g>
</g>
<g>
</g>
<g>
</g>
<g>
</g>
<g>
</g>
<g>
</g>
<g>
</g>
<g>
</g>
</svg>
