<?xml version="1.0" encoding="iso-8859-1"?>
<!-- Generator: Adobe Illustrator 19.0.0, SVG Export Plug-In . SVG Version: 6.00 Build 0)  -->
<svg version="1.1" id="Layer_1" xmlns="http://www.w3.org/2000/svg" xmlns:xlink="http://www.w3.org/1999/xlink" x="0px" y="0px"
	 viewBox="0 0 512 512" style="enable-background:new 0 0 512 512;" xml:space="preserve">
<g>
	<g>
		<path d="M500.995,110.65H11.005C4.927,110.65,0,115.577,0,121.655v268.69c0,6.078,4.927,11.005,11.005,11.005h489.989
			c6.078,0,11.005-4.927,11.005-11.005v-268.69C512,115.577,507.073,110.65,500.995,110.65z M22.011,132.661h55.872
			c-4.687,28.575-27.297,51.184-55.872,55.872V132.661z M22.011,379.339v-55.872c28.575,4.687,51.184,27.297,55.872,55.872H22.011z
			 M489.989,379.339h-55.872c4.687-28.575,27.297-51.184,55.872-55.872V379.339z M489.989,301.248
			c-40.727,5.003-73.088,37.364-78.091,78.092H100.102c-5.003-40.728-37.364-73.089-78.091-78.092v-90.496
			c40.727-5.003,73.088-37.364,78.091-78.091h311.796c5.003,40.727,37.364,73.089,78.091,78.091V301.248z M489.989,188.532
			c-28.575-4.687-51.184-27.297-55.872-55.872h55.872V188.532z"/>
	</g>
</g>
<g>
	<g>
		<path d="M397.209,208.603c-12.137,0-22.011-9.874-22.011-22.011c0-5.471-4.434-9.905-9.905-9.905H146.707
			c-5.471,0-9.905,4.434-9.905,9.905c0,12.137-9.874,22.011-22.011,22.011c-5.471,0-9.905,4.434-9.905,9.905v74.985
			c0,5.471,4.434,9.905,9.905,9.905c12.137,0,22.011,9.874,22.011,22.011c0,5.471,4.434,9.905,9.905,9.905h218.585
			c5.471,0,9.905-4.434,9.905-9.905c0-12.137,9.874-22.011,22.011-22.011c5.471,0,9.905-4.434,9.905-9.905v-74.985
			C407.114,213.037,402.679,208.603,397.209,208.603z M387.304,284.772c-15.118,3.686-27.045,15.612-30.731,30.731H155.428
			c-3.686-15.118-15.612-27.045-30.731-30.731v-57.545c15.118-3.686,27.045-15.612,30.731-30.731h201.146
			c3.686,15.118,15.614,27.045,30.731,30.731V284.772z"/>
	</g>
</g>
<g>
	<g>
		<path d="M218.49,210.503h-14.866c-5.471,0-9.905,4.434-9.905,9.905s4.434,9.905,9.905,9.905h4.962v61.28
			c0,5.471,4.434,9.905,9.905,9.905c5.471,0,9.905-4.434,9.905-9.905v-71.185C228.395,214.937,223.961,210.503,218.49,210.503z"/>
	</g>
</g>
<g>
	<g>
		<path d="M307.816,210.503h-45.546c-5.471,0-9.905,4.434-9.905,9.905v71.185c0,5.471,4.434,9.905,9.905,9.905h45.546
			c5.471,0,9.905-4.434,9.905-9.905v-71.185C317.721,214.937,313.286,210.503,307.816,210.503z M297.911,281.687h-25.736v-51.375
			h25.736V281.687z"/>
	</g>
</g>
<g>
</g>
<g>
</g>
<g>
</g>
<g>
</g>
<g>
</g>
<g>
</g>
<g>
</g>
<g>
</g>
<g>
</g>
<g>
</g>
<g>
</g>
<g>
</g>
<g>
</g>
<g>
</g>
<g>
</g>
</svg>
