<?xml version="1.0" encoding="iso-8859-1"?>
<!-- Generator: Adobe Illustrator 19.0.0, SVG Export Plug-In . SVG Version: 6.00 Build 0)  -->
<svg version="1.1" id="Layer_1" xmlns="http://www.w3.org/2000/svg" xmlns:xlink="http://www.w3.org/1999/xlink" x="0px" y="0px"
	 viewBox="0 0 512 512" style="enable-background:new 0 0 512 512;" xml:space="preserve">
<g>
	<g>
		<path d="M475.429,0H36.571C16.406,0,0,16.406,0,36.571v94.818v47.954v153.315v47.954v94.818C0,495.594,16.406,512,36.571,512
			h438.857C495.594,512,512,495.594,512,475.429V36.571C512,16.406,495.594,0,475.429,0z M24.381,143.579h57.785v23.573H24.381
			V143.579z M24.381,191.533h34.743v128.934H24.381V191.533z M24.381,344.848h57.785v23.573H24.381V344.848z M487.619,475.429
			c0,6.722-5.469,12.19-12.19,12.19H36.571c-6.722,0-12.19-5.469-12.19-12.19v-82.627h34.743V435.2
			c0,9.746,7.93,17.676,17.676,17.676h358.4c9.746,0,17.676-7.93,17.676-17.676V76.8c0-9.746-7.93-17.676-17.676-17.676H76.8
			c-9.746,0-17.676,7.93-17.676,17.676v42.398H24.381V36.571c0-6.722,5.469-12.19,12.19-12.19h438.857
			c6.722,0,12.19,5.469,12.19,12.19V475.429z M94.357,320.467H82.286V191.533h12.071c6.733,0,12.19-5.459,12.19-12.19v-47.954
			c0-6.732-5.458-12.19-12.19-12.19H82.286V82.286h347.429v347.429H82.286v-36.913h12.071c6.733,0,12.19-5.459,12.19-12.19v-47.954
			C106.547,325.926,101.09,320.467,94.357,320.467z"/>
	</g>
</g>
<g>
	<g>
		<path d="M340.476,171.524c-46.581-46.579-122.372-46.579-168.951,0c-46.58,46.581-46.58,122.372,0,168.953
			c23.29,23.289,53.883,34.934,84.475,34.934c30.593,0,61.185-11.646,84.476-34.934
			C387.056,293.895,387.056,218.105,340.476,171.524z M352.84,245.027h-30.597v0.001c-1.663-10.169-5.628-19.745-11.643-28.111
			l21.671-21.671C343.993,209.941,350.844,227.256,352.84,245.027z M266.971,159.161c17.771,1.996,35.088,8.847,49.782,20.569
			l-21.671,21.671c-8.366-6.015-17.942-9.982-28.111-11.643V159.161z M245.029,159.16v30.597
			c-10.169,1.663-19.745,5.628-28.111,11.644l-21.671-21.671C209.941,168.008,227.257,161.156,245.029,159.16z M179.73,195.246
			l21.671,21.671c-6.015,8.366-9.982,17.942-11.644,28.111h-30.596C161.156,227.257,168.008,209.941,179.73,195.246z
			 M159.161,266.971h30.596c1.663,10.169,5.628,19.745,11.644,28.111l-21.671,21.671
			C168.008,302.059,161.156,284.743,159.161,266.971z M245.029,352.84c-17.771-1.996-35.088-8.848-49.782-20.57l21.671-21.671
			c8.366,6.015,17.942,9.982,28.111,11.644V352.84z M224.035,287.963c-8.538-8.537-13.24-19.888-13.24-31.963
			c0-12.076,4.702-23.426,13.24-31.963c8.538-8.538,19.89-13.24,31.965-13.24s23.426,4.702,31.963,13.24
			c8.538,8.537,13.24,19.888,13.24,31.963c0,12.076-4.702,23.426-13.24,31.963c-8.537,8.538-19.889,13.24-31.963,13.24
			S232.574,296.502,224.035,287.963z M266.971,352.841v-30.598c10.169-1.662,19.745-5.628,28.111-11.643l21.671,21.671
			C302.059,343.993,284.743,350.846,266.971,352.841z M332.27,316.752l-21.671-21.671c6.015-8.366,9.982-17.942,11.643-28.111
			h30.597C350.844,284.743,343.992,302.059,332.27,316.752z"/>
	</g>
</g>
<g>
</g>
<g>
</g>
<g>
</g>
<g>
</g>
<g>
</g>
<g>
</g>
<g>
</g>
<g>
</g>
<g>
</g>
<g>
</g>
<g>
</g>
<g>
</g>
<g>
</g>
<g>
</g>
<g>
</g>
</svg>
