<?xml version="1.0" encoding="iso-8859-1"?>
<!-- Generator: Adobe Illustrator 19.0.0, SVG Export Plug-In . SVG Version: 6.00 Build 0)  -->
<svg version="1.1" id="Layer_1" xmlns="http://www.w3.org/2000/svg" xmlns:xlink="http://www.w3.org/1999/xlink" x="0px" y="0px"
	 viewBox="0 0 512 512" style="enable-background:new 0 0 512 512;" xml:space="preserve">
<g>
	<g>
		<path d="M256.002,418.133c-15.662,0-28.404,12.741-28.404,28.403s12.742,28.403,28.404,28.403s28.403-12.741,28.403-28.403
			S271.663,418.133,256.002,418.133z M256.002,455.269c-4.816,0-8.734-3.918-8.734-8.733s3.918-8.733,8.734-8.733
			c4.815,0,8.733,3.918,8.733,8.733C264.733,451.351,260.815,455.269,256.002,455.269z"/>
	</g>
</g>
<g>
	<g>
		<path d="M302.587,40.447h-50.403c-5.734,0-10.382,4.648-10.382,10.382c0,5.734,4.649,10.382,10.382,10.382h50.403
			c5.734,0,10.382-4.648,10.382-10.382C312.969,45.095,308.321,40.447,302.587,40.447z"/>
	</g>
</g>
<g>
	<g>
		<circle cx="220.312" cy="51.085" r="10.899"/>
	</g>
</g>
<g>
	<g>
		<path d="M377.101,0H134.899c-18.077,0-32.784,14.707-32.784,32.784v446.431c0,18.077,14.707,32.784,32.784,32.784h242.201
			c18.077,0,32.784-14.707,32.784-32.784V32.784C409.885,14.707,395.178,0,377.101,0z M388.029,479.216
			c0,6.026-4.902,10.928-10.928,10.928H134.899c-6.026,0-10.928-4.902-10.928-10.928V32.784c0-6.026,4.902-10.928,10.928-10.928
			h242.201c6.026,0,10.928,4.902,10.928,10.928V479.216z"/>
	</g>
</g>
<g>
	<g>
		<path d="M274.418,205.204c-4.269-4.266-11.186-4.266-15.456,0l-52.494,52.495c-4.267,4.267-4.267,11.187,0.001,15.455
			c2.134,2.134,4.931,3.202,7.727,3.202s5.594-1.068,7.727-3.201l52.494-52.495C278.685,216.392,278.685,209.472,274.418,205.204z"
			/>
	</g>
</g>
<g>
	<g>
		<path d="M305.532,235.626c-4.268-4.266-11.186-4.266-15.456,0l-20.912,20.912c-4.266,4.267-4.266,11.187,0.001,15.456
			c2.134,2.133,4.931,3.201,7.727,3.201s5.593-1.068,7.727-3.201l20.912-20.912C309.8,246.814,309.8,239.894,305.532,235.626z"/>
	</g>
</g>
<g>
	<g>
		<path d="M355.366,80.892h-198.73c-5.432,0-9.835,4.403-9.835,9.835v301.275c0,5.432,4.403,9.835,9.835,9.835h198.73
			c5.432,0,9.835-4.403,9.835-9.835V90.727C365.201,85.296,360.798,80.892,355.366,80.892z M345.53,382.167L345.53,382.167h-179.06
			V100.563h179.06V382.167z"/>
	</g>
</g>
<g>
</g>
<g>
</g>
<g>
</g>
<g>
</g>
<g>
</g>
<g>
</g>
<g>
</g>
<g>
</g>
<g>
</g>
<g>
</g>
<g>
</g>
<g>
</g>
<g>
</g>
<g>
</g>
<g>
</g>
</svg>
