<?xml version="1.0" encoding="iso-8859-1"?>
<!-- Generator: Adobe Illustrator 19.0.0, SVG Export Plug-In . SVG Version: 6.00 Build 0)  -->
<svg version="1.1" id="Layer_1" xmlns="http://www.w3.org/2000/svg" xmlns:xlink="http://www.w3.org/1999/xlink" x="0px" y="0px"
	 viewBox="0 0 512.001 512.001" style="enable-background:new 0 0 512.001 512.001;" xml:space="preserve">
<g>
	<g>
		<path d="M369.464,339.057c-0.405-0.043-56.194,1.396-64.702-58.184c20.437-14.371,36.793-37.544,46.039-65.952
			c0.369,2.755,0.669,5.525,0.839,8.325c0.29,4.805,3.525,8.928,8.121,10.353c1.13,0.349,2.283,0.519,3.424,0.519
			c3.505,0,6.9-1.598,9.13-4.462c19.664-25.256,29.886-58.155,28.785-92.634c-1.082-33.83-12.957-65.567-33.441-89.367
			c-20.876-24.254-48.396-37.746-77.521-38.011c-1.487-0.065-5.782,0.093-6.623,0.152c-15.172-6.995-31.224-10.264-47.742-9.742
			c-33.699,1.077-64.723,17.911-87.36,47.399c-22.108,28.803-33.589,66.405-32.328,105.878c0.214,6.686,0.742,12.843,1.598,18.726
			c2.305,16.822,6.937,32.932,13.771,47.884c1.778,3.891,5.559,6.483,9.829,6.739c4.284,0.253,8.334-1.866,10.565-5.516
			c1.413-2.312,3.298-5.317,5.399-8.125c0.766-1.034,1.551-2.037,2.345-3.025c6.196,21.189,16.413,40.232,29.691,54.975
			c5.56,6.173,11.586,11.508,17.955,15.961c-9.659,60.085-64.292,58.067-64.697,58.11c-40.848,1.399-73.652,35.042-73.652,76.226
			v85.148c0,6.39,5.179,11.569,11.569,11.569h351.087c6.39,0,11.569-5.179,11.569-11.569v-85.148
			C443.115,374.1,410.31,340.456,369.464,339.057z M159.453,177.75c-0.364,0.27-10.527,9.255-14.129,13.299
			c-2.104-7.181-3.687-14.605-4.732-22.229c-0.744-5.112-1.195-10.42-1.38-16.229c-1.091-34.142,8.695-66.478,27.556-91.05
			c18.336-23.886,43.104-37.51,69.744-38.362c0.892-0.029,19.835-1.163,39.67,8.757c1.705,0.853,3.708,1.262,5.596,1.2
			c0.216-0.007,7.796-0.357,7.969-0.356c22.428,0.148,43.868,10.792,60.374,29.968c17.047,19.807,26.938,46.447,27.851,75.012
			c0.587,18.332-2.571,36.07-9.078,51.937c-1.895-6.105-4.224-12.071-6.984-17.872c-13.59-28.914-36.45-51.305-64.369-63.046
			c-2.91-1.224-6.194-1.206-9.087,0.05c-2.896,1.255-5.153,3.64-6.247,6.599c-1.964,5.309-4.349,10.482-7.084,15.374
			c-8.047,14.393-24.216,22.939-42.15,22.327c-2.477-0.084-4.982-0.088-7.452-0.009c-12.132,0.389-23.962,2.699-35.209,6.888
			C179.171,164.214,168.814,170.188,159.453,177.75z M178.956,192.007c6.084-4.263,12.609-7.74,19.482-10.336
			c8.842-3.293,18.201-5.118,27.823-5.426c1.957-0.061,7.673,0.053,8.551,0.053c25.603-0.002,48.619-12.942,60.508-34.206
			c1.256-2.248,2.451-4.543,3.581-6.877c14.952,8.562,27.642,21.214,36.915,36.782c-0.169,0.647-0.294,1.313-0.349,2.003
			c-2.253,27.855-11.889,53.452-27.136,72.078c-14.608,17.846-33.215,27.674-52.391,27.674
			C220.281,273.754,188.676,239.763,178.956,192.007z M228.97,292.214c8.727,3.081,17.793,4.677,26.97,4.677
			c9.362,0,18.446-1.637,27.091-4.701c5.112,25.764,21.646,47.462,44.092,59.571c-7.895,32.318-37.132,55.796-71.118,55.796
			c-33.987,0-63.223-23.478-71.119-55.797C207.322,339.655,223.853,317.967,228.97,292.214z M92.028,488.862v-73.579
			c0-29.31,23.845-53.155,53.154-53.155c0.415,0,11.231-0.272,17.905-2.191c11.326,41.154,49.136,70.76,92.916,70.76
			c43.779,0,81.589-29.606,92.915-70.76c6.505,1.775,17.489,2.191,17.904,2.191c29.309,0,53.154,23.845,53.154,53.155v73.579H92.028
			z"/>
	</g>
</g>
<g>
</g>
<g>
</g>
<g>
</g>
<g>
</g>
<g>
</g>
<g>
</g>
<g>
</g>
<g>
</g>
<g>
</g>
<g>
</g>
<g>
</g>
<g>
</g>
<g>
</g>
<g>
</g>
<g>
</g>
</svg>
