<?xml version="1.0" encoding="iso-8859-1"?>
<!-- Generator: Adobe Illustrator 19.0.0, SVG Export Plug-In . SVG Version: 6.00 Build 0)  -->
<svg version="1.1" id="Layer_1" xmlns="http://www.w3.org/2000/svg" xmlns:xlink="http://www.w3.org/1999/xlink" x="0px" y="0px"
	 viewBox="0 0 512.003 512.003" style="enable-background:new 0 0 512.003 512.003;" xml:space="preserve">
<g>
	<g>
		<path d="M457.678,54.323c-35.03-35.03-81.604-54.322-131.143-54.322s-96.113,19.292-131.143,54.322
			c-35.03,35.03-54.322,81.604-54.322,131.144c0,45.443,16.243,88.38,45.965,122.211l-23.577,23.576l-23.338-23.338
			c-2.292-2.292-5.403-3.581-8.645-3.581c-3.242,0-6.352,1.289-8.645,3.581L16.801,413.946C-5.6,436.348-5.6,472.799,16.802,495.201
			c11.201,11.2,25.913,16.8,40.627,16.8s29.426-5.601,40.627-16.8l106.029-106.029c4.774-4.774,4.774-12.515,0-17.291
			l-23.338-23.338l23.577-23.576c33.831,29.722,76.77,45.965,122.211,45.965c49.541,0,96.113-19.292,131.144-54.322
			c35.029-35.03,54.322-81.604,54.322-131.144S492.708,89.353,457.678,54.323z M80.765,477.909
			c-12.867,12.869-33.806,12.869-46.674,0c-12.867-12.867-12.867-33.806,0-46.675l59.874-59.874l46.674,46.675L80.765,477.909z
			 M157.928,400.746l-46.675-46.675l20.22-20.22l46.675,46.675L157.928,400.746z M440.389,299.32
			c-30.411,30.411-70.845,47.16-113.854,47.16c-43.009,0-83.442-16.749-113.854-47.16c-30.412-30.411-47.16-70.845-47.16-113.854
			s16.749-83.442,47.16-113.854c30.411-30.411,70.845-47.16,113.854-47.16c43.009,0,83.442,16.749,113.854,47.16
			C503.167,134.392,503.167,236.541,440.389,299.32z"/>
	</g>
</g>
<g>
	<g>
		<path d="M417.151,94.85c-49.966-49.966-131.267-49.967-181.233,0c-24.204,24.204-37.535,56.386-37.535,90.616
			c0,34.231,13.331,66.411,37.535,90.616c24.983,24.983,57.799,37.474,90.616,37.474s65.633-12.492,90.616-37.474
			c24.204-24.206,37.534-56.386,37.534-90.616C454.685,151.236,441.355,119.054,417.151,94.85z M399.86,258.793
			c-40.433,40.433-106.22,40.433-146.653,0c-19.587-19.587-30.373-45.627-30.373-73.327s10.787-53.74,30.373-73.327
			c20.216-20.216,46.772-30.324,73.327-30.324s53.109,10.108,73.327,30.324c19.587,19.587,30.373,45.626,30.373,73.327
			C430.234,213.164,419.447,239.206,399.86,258.793z"/>
	</g>
</g>
<g>
	<g>
		<path d="M366.408,173.24h-79.745c-6.752,0-12.226,5.475-12.226,12.226s5.473,12.226,12.226,12.226h79.745
			c6.752,0,12.226-5.475,12.226-12.226S373.16,173.24,366.408,173.24z"/>
	</g>
</g>
<g>
</g>
<g>
</g>
<g>
</g>
<g>
</g>
<g>
</g>
<g>
</g>
<g>
</g>
<g>
</g>
<g>
</g>
<g>
</g>
<g>
</g>
<g>
</g>
<g>
</g>
<g>
</g>
<g>
</g>
</svg>
