<?xml version="1.0" encoding="iso-8859-1"?>
<!-- Generator: Adobe Illustrator 19.0.0, SVG Export Plug-In . SVG Version: 6.00 Build 0)  -->
<svg version="1.1" id="Layer_1" xmlns="http://www.w3.org/2000/svg" xmlns:xlink="http://www.w3.org/1999/xlink" x="0px" y="0px"
	 viewBox="0 0 512 512" style="enable-background:new 0 0 512 512;" xml:space="preserve">
<g>
	<g>
		<path d="M457.677,54.323c-72.434-72.431-190.289-72.428-262.721,0c-69.298,69.301-72.285,180.173-8.982,253.07l-22.129,22.129
			l-22.547-22.547c-5.146-5.144-13.486-5.144-18.634,0L17.029,412.609c-22.705,22.706-22.705,59.652,0,82.361
			C28.383,506.324,43.298,512,58.209,512c14.913,0,29.827-5.677,41.181-17.029l105.635-105.635c5.145-5.145,5.145-13.488,0-18.634
			l-22.548-22.547l22.129-22.129c34.801,30.221,78.253,45.341,121.711,45.341c47.571,0,95.144-18.108,131.36-54.323
			C530.108,244.61,530.108,126.755,457.677,54.323z M80.756,476.337c-12.433,12.432-32.661,12.435-45.095,0
			c-12.434-12.432-12.434-32.663,0-45.095l58.947-58.947l45.095,45.095L80.756,476.337z M158.337,398.757l-45.095-45.095
			l18.738-18.738l45.094,45.094L158.337,398.757z M439.044,298.41c-62.158,62.156-163.297,62.158-225.455,0
			s-62.158-163.297,0-225.455c31.083-31.083,71.897-46.618,112.729-46.618c40.818,0,81.652,15.543,112.726,46.618
			C501.201,135.113,501.201,236.253,439.044,298.41z"/>
	</g>
</g>
<g>
	<g>
		<path d="M417.3,94.699c-24.302-24.302-56.615-37.687-90.984-37.687c-34.368,0-66.68,13.385-90.983,37.687
			c-24.303,24.302-37.687,56.615-37.687,90.984c0,34.368,13.385,66.68,37.687,90.983c24.302,24.303,56.615,37.688,90.983,37.688
			c34.369,0,66.681-13.385,90.984-37.688c24.302-24.302,37.688-56.615,37.688-90.983C454.986,151.315,441.602,119.003,417.3,94.699z
			 M398.666,258.033c-19.326,19.327-45.02,29.97-72.351,29.97c-27.329,0-53.024-10.643-72.349-29.97
			c-19.327-19.326-29.97-45.02-29.97-72.349c0-27.331,10.643-53.025,29.97-72.351c19.325-19.327,45.02-29.97,72.349-29.97
			c27.331,0,53.025,10.643,72.351,29.97c19.327,19.326,29.97,45.02,29.97,72.351C428.636,213.013,417.993,238.708,398.666,258.033z"
			/>
	</g>
</g>
<g>
	<g>
		<path d="M366.04,172.507h-26.548v-26.548c0-7.275-5.9-13.175-13.175-13.175s-13.175,5.9-13.175,13.175v26.548h-26.549
			c-7.277,0-13.175,5.9-13.175,13.175c0,7.277,5.899,13.175,13.175,13.175h26.549v26.549c0,7.277,5.9,13.175,13.175,13.175
			s13.175-5.899,13.175-13.175v-26.549h26.548c7.275,0,13.175-5.899,13.175-13.175C379.215,178.406,373.317,172.507,366.04,172.507z
			"/>
	</g>
</g>
<g>
</g>
<g>
</g>
<g>
</g>
<g>
</g>
<g>
</g>
<g>
</g>
<g>
</g>
<g>
</g>
<g>
</g>
<g>
</g>
<g>
</g>
<g>
</g>
<g>
</g>
<g>
</g>
<g>
</g>
</svg>
